# xmcd
#
# Track frame offsets:
#	150
#	9410
#	20239
#	29754
#	44140
#	56424
#	66275
#	77168
#	90059
#	103038
#	113702
#	126513
#	136020
#	150271
#	161915
#
# Disc length: 2326 seconds
#
# Revision: 0
# Processed by: cddbd v1.5.2PL0 Copyright (c) Steve Scherf et al.
# Submitted via: audiograbber 1.83.01
#
DISCID=c309140f
DTITLE=Tony Bennett - 3 Original Hit Albums - The Beat Of My Heart
DYEAR=1900
DGENRE=
TTITLE0=LET'S BEGIN
TTITLE1=LULLABY OF BROADWAY
TTITLE2=LET THERE BE LOVE
TTITLE3=LOVE FOR SALE
TTITLE4=ARMY AIR CORPS SONG
TTITLE5=CRAZY RHYTHM
TTITLE6=THE BEAT MY HEART FOR YOU
TTITLE7=SO BEATS MY HEART FOR YOU
TTITLE8=BLUES IN THE NIGHT
TTITLE9=LAZY AFTERNOON
TTITLE10=LET'S FACE THE MUSIC AND DANCE
TTITLE11=JUST ONE OF THOSE THINGS
TTITLE12=MAY I NEVER LOVE AGAIN
TTITLE13=JUST IN TIME
TTITLE14=CA, C'EEST L'AMOUR
EXTD=
EXTT0=
EXTT1=
EXTT2=
EXTT3=
EXTT4=
EXTT5=
EXTT6=
EXTT7=
EXTT8=
EXTT9=
EXTT10=
EXTT11=
EXTT12=
EXTT13=
EXTT14=
PLAYORDER=
